# xmcd
#
# Track frame offsets: 
#        150
#        12945
#        25755
#        39752
#        53667
#        67720
#        81085
#        94077
#        106955
#        118272
#        130737
#        145052
#        156370
#        170440
#        181132
#        191487
#        202657
#        214500
#        226845
#        238642
#        252462
#
# Disc length: 3564 seconds
#
# Revision: 4
# Processed by: cddbd v1.5.2PL0 Copyright (c) Steve Scherf et al.
# Submitted via: ExactAudioCopy v1.3
#
DISCID=060dea15
DTITLE=Bix Beiderbecke - Blues pioneers, Disc 9
DYEAR=2007
DGENRE=Blues
TTITLE0=Singin' the blues
TTITLE1=Way down yonder in New Orleans
TTITLE2=I'm comin' again
TTITLE3=Ostrich walk
TTITLE4=Riverboat shuffle
TTITLE5=Three blind mice
TTITLE6=Sorry
TTITLE7=Royal garden blues
TTITLE8=Tiger rag
TTITLE9=Davenport blues
TTITLE10=Ol' man river
TTITLE11=Coquette
TTITLE12=Georgia on my mind
TTITLE13=Fidgetty feet
TTITLE14=Oh baby
TTITLE15=Copenhagen
TTITLE16=Susie
TTITLE17=In a mist (Bixologie)
TTITLE18=Sensation
TTITLE19=For no reason at all in 'C'
TTITLE20=Clarinet marmelade
EXTD=
EXTT0=
EXTT1=
EXTT2=
EXTT3=
EXTT4=
EXTT5=
EXTT6=
EXTT7=
EXTT8=
EXTT9=
EXTT10=
EXTT11=
EXTT12=
EXTT13=
EXTT14=
EXTT15=
EXTT16=
EXTT17=
EXTT18=
EXTT19=
EXTT20=
PLAYORDER=
